<svg fill="none" height="240" width="397" xmlns="http://www.w3.org/2000/svg" xmlns:xlink="http://www.w3.org/1999/xlink"><filter id="a" color-interpolation-filters="sRGB" filterUnits="userSpaceOnUse" height="204.66" width="138.41" x="128.22" y=".19"><feFlood flood-opacity="0" result="BackgroundImageFix"/><feColorMatrix in="SourceAlpha" values="0 0 0 0 0 0 0 0 0 0 0 0 0 0 0 0 0 0 127 0"/><feOffset dy="3"/><feGaussianBlur stdDeviation="7"/><feColorMatrix values="0 0 0 0 0 0 0 0 0 0 0 0 0 0 0 0 0 0 0.25 0"/><feBlend in2="BackgroundImageFix" result="effect1_dropShadow"/><feBlend in="SourceGraphic" in2="effect1_dropShadow" result="shape"/></filter><filter id="b" color-interpolation-filters="sRGB" filterUnits="userSpaceOnUse" height="219.45" width="157.81" x="238.41" y="19.73"><feFlood flood-opacity="0" result="BackgroundImageFix"/><feColorMatrix in="SourceAlpha" values="0 0 0 0 0 0 0 0 0 0 0 0 0 0 0 0 0 0 127 0"/><feOffset dy="3"/><feGaussianBlur stdDeviation="7"/><feColorMatrix values="0 0 0 0 0 0 0 0 0 0 0 0 0 0 0 0 0 0 0.25 0"/><feBlend in2="BackgroundImageFix" result="effect1_dropShadow"/><feBlend in="SourceGraphic" in2="effect1_dropShadow" result="shape"/></filter><filter id="c" color-interpolation-filters="sRGB" filterUnits="userSpaceOnUse" height="216.58" width="156.5" x=".28" y="22.56"><feFlood flood-opacity="0" result="BackgroundImageFix"/><feColorMatrix in="SourceAlpha" values="0 0 0 0 0 0 0 0 0 0 0 0 0 0 0 0 0 0 127 0"/><feOffset dy="3"/><feGaussianBlur stdDeviation="7"/><feColorMatrix values="0 0 0 0 0 0 0 0 0 0 0 0 0 0 0 0 0 0 0.25 0"/><feBlend in2="BackgroundImageFix" result="effect1_dropShadow"/><feBlend in="SourceGraphic" in2="effect1_dropShadow" result="shape"/></filter><g filter="url(#a)"><path d="m147.26 54.01h100.66l-7.18 126.02a8.28 8.28 0 0 1 -8.27 7.81h-69.77a8.28 8.28 0 0 1 -8.27-7.8zm0-6.93 5.25-24.7c1.4-6.57 6.49-11.2 12.34-11.2h65.48c5.85 0 10.94 4.63 12.34 11.2l5.25 24.7z" fill="#5db2ff"/><path d="m249.88 44.88h-104.9a2.76 2.76 0 0 0 -2.75 2.76v3.61a2.76 2.76 0 0 0 2.76 2.76h104.89a2.76 2.76 0 0 0 2.76-2.76v-3.61a2.76 2.76 0 0 0 -2.76-2.76z" fill="#2b9aff"/><path d="m182.8 31.65c4.88 3.15 9.75 4.73 14.63 4.73s9.75-1.58 14.63-4.73" stroke="#0070d5" stroke-linecap="square" stroke-width="5"/><path d="m209.3 114.82 4.9 8.6a2.86 2.86 0 0 1 -2.49 4.28h-10.01m-15.78-12.88-4.93 8.55a2.89 2.89 0 0 0 2.47 4.32h10.03m11.71-19.32-5.27-8.31a2.86 2.86 0 0 0 -4.84 0l-5.24 8.26-1.34 2.11" stroke="#fff" stroke-width="4.44"/><path clip-rule="evenodd" d="m204.62 123.3-5.57 4.25 5.57 4.24zm-17.01-3.21.02-7.03-6.74 1.96zm13.19-10.15 6.74 1.96-.01-7.03z" fill="#fff" fill-rule="evenodd"/></g><g filter="url(#b)"><path d="m275.65 72.9 99.13 17.48-28.95 122.86a8.28 8.28 0 0 1 -9.5 6.26l-68.7-12.12a8.28 8.28 0 0 1 -6.8-9.12zm1.2-6.82 9.46-23.41c2.52-6.24 8.34-9.9 14.1-8.89l64.48 11.37c5.77 1.02 9.98 6.46 10.21 13.18l.88 25.23z" fill="#55e886"/><path d="m378.3 81.73-103.3-18.21a2.76 2.76 0 0 0 -3.2 2.23l-.63 3.56a2.76 2.76 0 0 0 2.24 3.2l103.3 18.21c1.5.27 2.93-.73 3.2-2.24l.62-3.55a2.76 2.76 0 0 0 -2.24-3.2z" fill="#17d858"/><path d="m314.54 57.06c4.25 3.95 8.78 6.34 13.58 7.19s9.88.14 15.23-2.11" stroke="#00c241" stroke-linecap="square" stroke-width="5"/><path d="m326.2 143.56 3.32 9.32a2.86 2.86 0 0 1 -3.2 3.78l-9.86-1.74m-13.29-15.42-6.35 7.57a2.89 2.89 0 0 0 1.69 4.68l9.87 1.75m14.89-17-3.75-9.1a2.86 2.86 0 0 0 -4.76-.84l-6.6 7.22-1.68 1.85" stroke="#fff" stroke-width="4.44"/><path clip-rule="evenodd" d="m320.1 151.1-6.21 3.22 4.74 5.14zm-16.18-6.12 1.23-6.91-6.97.75zm14.76-7.7 6.29 3.1 1.2-6.92z" fill="#fff" fill-rule="evenodd"/></g><g filter="url(#c)"><path d="m20.32 90.3 99.22-17.5 14.81 125.4a8.28 8.28 0 0 1 -6.78 9.13l-68.78 12.12a8.28 8.28 0 0 1 -9.5-6.25zm-1.2-6.8.89-25.22c.23-6.72 4.45-12.16 10.22-13.17l64.54-11.38c5.77-1.02 11.6 2.64 14.11 8.88l9.46 23.4z" fill="#ffcb35"/><path d="m119.86 63.5-103.3 18.2c-1.5.27-2.5 1.7-2.23 3.2l.62 3.53c.26 1.5 1.7 2.5 3.2 2.24l103.3-18.21c1.5-.27 2.5-1.7 2.23-3.2l-.62-3.53a2.76 2.76 0 0 0 -3.2-2.24z" fill="#ffbf06"/><path d="m51.5 62.1c5.35 2.23 10.43 2.92 15.23 2.08 4.8-.85 9.33-3.24 13.6-7.16" stroke="#ecaf00" stroke-linecap="square" stroke-width="5"/><path d="m92.03 139.43 6.3 7.63a2.87 2.87 0 0 1 -1.7 4.66l-9.86 1.74m-17.75-9.97-3.37 9.29a2.9 2.9 0 0 0 3.19 3.84l9.86-1.74m8.17-21.1-6.64-7.28a2.86 2.86 0 0 0 -4.76.84l-3.72 9.05-.95 2.32" stroke="#fff" stroke-width="4.44"/><path clip-rule="evenodd" d="m88.89 148.62-4.74 5.15 6.22 3.22zm-17.29-.22-1.21-6.94-6.29 3.1zm11.22-12.3 6.97.75-1.24-6.92z" fill="#fff" fill-rule="evenodd"/></g></svg>